<svg width="32" height="32" viewBox="0 0 32 32" fill="none" xmlns="http://www.w3.org/2000/svg">
<path d="M0 16C0 7.16344 7.16344 0 16 0C24.8366 0 32 7.16344 32 16C32 24.8366 24.8366 32 16 32C7.16344 32 0 24.8366 0 16Z" fill="#ECEDF0"/>
<path d="M20.9993 16.8337H16.8327V21.0003C16.8327 21.4587 16.4577 21.8337 15.9993 21.8337C15.541 21.8337 15.166 21.4587 15.166 21.0003V16.8337H10.9993C10.541 16.8337 10.166 16.4587 10.166 16.0003C10.166 15.542 10.541 15.167 10.9993 15.167H15.166V11.0003C15.166 10.542 15.541 10.167 15.9993 10.167C16.4577 10.167 16.8327 10.542 16.8327 11.0003V15.167H20.9993C21.4577 15.167 21.8327 15.542 21.8327 16.0003C21.8327 16.4587 21.4577 16.8337 20.9993 16.8337Z" fill="#1F2126"/>
</svg>
