<svg width="10" height="16" viewBox="0 0 10 16" fill="none" xmlns="http://www.w3.org/2000/svg">
<path d="M5.82448 2.71766V2.325V1H4.32448V2.3V2.70334L3.93028 2.78868C2.43048 3.11338 1.40781 4.0344 1.40781 5.30833C1.40781 6.1063 1.72643 6.68779 2.30633 7.151C2.90987 7.6331 3.80483 7.99092 4.94116 8.26381L5.82448 2.71766ZM5.82448 2.71766L6.20595 2.81075C7.4997 3.12645 8.22294 3.9895 8.43563 5M5.82448 2.71766L8.43563 5M8.43563 5H7.59948C7.51331 4.57594 7.32894 4.18078 6.99485 3.86889C6.54028 3.44453 5.88936 3.25 5.07448 3.25C4.30254 3.25 3.62918 3.42267 3.13366 3.77127C2.62392 4.12987 2.32448 4.66311 2.32448 5.29167C2.32448 5.55635 2.37606 5.81803 2.5054 6.06697C2.63394 6.31439 2.82549 6.52271 3.0677 6.70193C3.53729 7.0494 4.24105 7.31835 5.1987 7.56725C6.13557 7.81076 7.03227 8.11652 7.69138 8.61294C8.3223 9.08812 8.74115 9.74002 8.74115 10.75C8.74115 11.4633 8.47752 11.9934 8.05232 12.3874C7.61506 12.7927 6.98235 13.0746 6.23127 13.2171L5.82448 13.2943V13.7083V15H4.32448V13.6917V13.2872L3.9289 13.2027C2.63854 12.9271 1.61807 12.2018 1.33231 11H2.17444C2.29108 11.4285 2.52351 11.8253 2.91185 12.1348C3.42489 12.5436 4.14792 12.75 5.07448 12.75C6.07407 12.75 6.77273 12.5008 7.2258 12.0903C7.68093 11.678 7.82448 11.1604 7.82448 10.7583C7.82448 10.2631 7.68339 9.74282 7.19818 9.28673C6.74055 8.85655 6.01622 8.52183 4.94123 8.26382L8.43563 5Z" fill="#121316" stroke="#121316"/>
</svg>
