<svg width="18" height="24" viewBox="0 0 18 24" fill="none" xmlns="http://www.w3.org/2000/svg">
<path d="M9.78805 21.5024L-0.00195312 11.7124V13.7124C-0.00195312 14.2424 0.208047 14.7524 0.588047 15.1224L8.37805 22.9124C9.15805 23.6924 10.428 23.6924 11.208 22.9124L17.418 16.7024C18.198 15.9224 18.198 14.6524 17.418 13.8724L9.78805 21.5024Z" fill="#121316"/>
<path d="M8.37805 17.9124C9.15805 18.6924 10.428 18.6924 11.208 17.9124L17.418 11.7024C18.198 10.9224 18.198 9.65244 17.418 8.87244L9.62805 1.08244C9.24805 0.712441 8.73805 0.502441 8.20805 0.502441H1.99805C0.898047 0.502441 -0.00195312 1.40244 -0.00195312 2.50244V8.71244C-0.00195312 9.24244 0.208047 9.75244 0.588047 10.1224L8.37805 17.9124ZM4.24805 3.50244C4.93805 3.50244 5.49805 4.06244 5.49805 4.75244C5.49805 5.44244 4.93805 6.00244 4.24805 6.00244C3.55805 6.00244 2.99805 5.44244 2.99805 4.75244C2.99805 4.06244 3.55805 3.50244 4.24805 3.50244Z" fill="#121316"/>
</svg>
