<svg width="25" height="24" viewBox="0 0 25 24" fill="none" xmlns="http://www.w3.org/2000/svg">
<path fill-rule="evenodd" clip-rule="evenodd" d="M16.4215 3.87725C17.2003 2.87177 17.7908 1.45063 17.5772 0C16.3041 0.0884702 14.8162 0.902958 13.9479 1.9646C13.1565 2.92654 12.506 4.35751 12.7601 5.74636C14.1517 5.78988 15.5881 4.95574 16.4215 3.87725ZM23.3004 17.5226C22.7435 18.764 22.4754 19.3188 21.7579 20.4184C20.7571 21.9532 19.3459 23.8644 17.5955 23.8784C16.0418 23.8954 15.6411 22.8604 13.532 22.873C11.4228 22.8842 10.9831 23.8981 9.42671 23.8826C7.67766 23.8673 6.34041 22.1428 5.33956 20.6078C2.53942 16.3192 2.24489 11.2848 3.9716 8.60682C5.19997 6.70542 7.13746 5.59321 8.95769 5.59321C10.81 5.59321 11.9756 6.61554 13.5097 6.61554C14.9977 6.61554 15.9036 5.5904 18.0463 5.5904C19.6684 5.5904 21.3866 6.47933 22.6094 8.01281C18.6005 10.2232 19.2495 15.9822 23.3004 17.5226Z" fill="#121316"/>
</svg>
