<svg width="44" height="41" viewBox="0 0 44 41" fill="none" xmlns="http://www.w3.org/2000/svg">
<path fill-rule="evenodd" clip-rule="evenodd" d="M18.2999 16.7997C17.1449 16.7997 16.2104 17.7447 16.2104 18.8997C16.2104 20.0546 17.1449 20.9996 18.2999 20.9996C19.4549 20.9996 20.3999 20.0546 20.3999 18.8997C20.3999 17.7447 19.4549 16.7997 18.2999 16.7997ZM12 1.04998C12 1.62747 12.4725 2.09996 13.05 2.09996H14.1L17.8799 10.0693L16.4624 12.6313C15.6959 14.0383 16.7039 15.7497 18.2999 15.7497H29.8497C30.4272 15.7497 30.8997 15.2772 30.8997 14.6997C30.8997 14.1223 30.4272 13.6498 29.8497 13.6498H18.2999L19.4549 11.5498H27.2772C28.0647 11.5498 28.7577 11.1193 29.1147 10.4683L32.8736 3.65394C33.2621 2.96095 32.7581 2.09996 31.9601 2.09996H16.4204L15.7169 0.598489C15.5489 0.230996 15.1709 0 14.772 0H13.05C12.4725 0 12 0.472492 12 1.04998ZM28.7997 16.7997C27.6447 16.7997 26.7102 17.7447 26.7102 18.8997C26.7102 20.0546 27.6447 20.9996 28.7997 20.9996C29.9547 20.9996 30.8997 20.0546 30.8997 18.8997C30.8997 17.7447 29.9547 16.7997 28.7997 16.7997Z" fill="#8B96A5"/>
<path d="M1.34197 29.2727H2.60334L5.56925 36.517H5.67152L8.63743 29.2727H9.89879V38H8.91016V31.3693H8.82493L6.09766 38H5.14311L2.41584 31.3693H2.33061V38H1.34197V29.2727ZM12.5291 40.4545C12.3587 40.4545 12.2067 40.4403 12.0732 40.4119C11.9396 40.3864 11.8473 40.3608 11.7962 40.3352L12.0518 39.4489C12.2962 39.5114 12.5121 39.5341 12.6996 39.517C12.8871 39.5 13.0533 39.4162 13.1982 39.2656C13.3459 39.1179 13.4808 38.8778 13.603 38.5455L13.7905 38.0341L11.37 31.4545H12.4609L14.2678 36.6705H14.3359L16.1428 31.4545H17.2337L14.4553 38.9545C14.3303 39.2926 14.1754 39.5724 13.9908 39.794C13.8061 40.0185 13.5916 40.1847 13.3473 40.2926C13.1058 40.4006 12.8331 40.4545 12.5291 40.4545ZM24.5952 38.1364C23.9815 38.1364 23.4531 37.9915 23.0099 37.7017C22.5668 37.4119 22.2259 37.0128 21.9872 36.5043C21.7486 35.9957 21.6293 35.4148 21.6293 34.7614C21.6293 34.0966 21.7514 33.5099 21.9957 33.0014C22.2429 32.4901 22.5866 32.0909 23.027 31.804C23.4702 31.5142 23.9872 31.3693 24.5781 31.3693C25.0384 31.3693 25.4531 31.4545 25.8224 31.625C26.1918 31.7955 26.4943 32.0341 26.7301 32.3409C26.9659 32.6477 27.1122 33.0057 27.169 33.4148H26.1634C26.0866 33.1165 25.9162 32.8523 25.652 32.6222C25.3906 32.3892 25.0384 32.2727 24.5952 32.2727C24.2031 32.2727 23.8594 32.375 23.5639 32.5795C23.2713 32.7812 23.0426 33.0668 22.8778 33.4361C22.7159 33.8026 22.6349 34.233 22.6349 34.7273C22.6349 35.233 22.7145 35.6733 22.8736 36.0483C23.0355 36.4233 23.2628 36.7145 23.5554 36.9219C23.8509 37.1293 24.1974 37.233 24.5952 37.233C24.8565 37.233 25.0938 37.1875 25.3068 37.0966C25.5199 37.0057 25.7003 36.875 25.848 36.7045C25.9957 36.5341 26.1009 36.3295 26.1634 36.0909H27.169C27.1122 36.4773 26.9716 36.8253 26.7472 37.1349C26.5256 37.4418 26.2315 37.6861 25.8651 37.8679C25.5014 38.0469 25.0781 38.1364 24.5952 38.1364ZM30.5653 38.1534C30.1506 38.1534 29.7741 38.0753 29.4361 37.919C29.098 37.7599 28.8295 37.5312 28.6307 37.233C28.4318 36.9318 28.3324 36.5682 28.3324 36.142C28.3324 35.767 28.4063 35.4631 28.554 35.2301C28.7017 34.9943 28.8991 34.8097 29.1463 34.6761C29.3935 34.5426 29.6662 34.4432 29.9645 34.3778C30.2656 34.3097 30.5682 34.2557 30.8722 34.2159C31.2699 34.1648 31.5923 34.1264 31.8395 34.1009C32.0895 34.0724 32.2713 34.0256 32.3849 33.9602C32.5014 33.8949 32.5597 33.7812 32.5597 33.6193V33.5852C32.5597 33.1648 32.4446 32.8381 32.2145 32.6051C31.9872 32.3722 31.642 32.2557 31.179 32.2557C30.6989 32.2557 30.3224 32.3608 30.0497 32.571C29.777 32.7812 29.5852 33.0057 29.4744 33.2443L28.5199 32.9034C28.6903 32.5057 28.9176 32.196 29.2017 31.9744C29.4886 31.75 29.8011 31.5937 30.1392 31.5057C30.4801 31.4148 30.8153 31.3693 31.1449 31.3693C31.3551 31.3693 31.5966 31.3949 31.8693 31.446C32.1449 31.4943 32.4105 31.5952 32.6662 31.7486C32.9247 31.902 33.1392 32.1335 33.3097 32.4432C33.4801 32.7528 33.5653 33.1676 33.5653 33.6875V38H32.5597V37.1136H32.5085C32.4403 37.2557 32.3267 37.4077 32.1676 37.5696C32.0085 37.7315 31.7969 37.8693 31.5327 37.983C31.2685 38.0966 30.946 38.1534 30.5653 38.1534ZM30.7188 37.25C31.1165 37.25 31.4517 37.1719 31.7244 37.0156C32 36.8594 32.2074 36.6577 32.3466 36.4105C32.4886 36.1634 32.5597 35.9034 32.5597 35.6307V34.7102C32.517 34.7614 32.4233 34.8082 32.2784 34.8509C32.1364 34.8906 31.9716 34.9261 31.7841 34.9574C31.5994 34.9858 31.419 35.0114 31.2429 35.0341C31.0696 35.054 30.929 35.071 30.821 35.0852C30.5597 35.1193 30.3153 35.1747 30.0881 35.2514C29.8636 35.3253 29.6818 35.4375 29.5426 35.5881C29.4063 35.7358 29.3381 35.9375 29.3381 36.1932C29.3381 36.5426 29.4673 36.8068 29.7259 36.9858C29.9872 37.1619 30.3182 37.25 30.7188 37.25ZM35.4009 38V31.4545H36.3725V32.4432H36.4407C36.56 32.1193 36.7759 31.8565 37.0884 31.6548C37.4009 31.4531 37.7532 31.3523 38.1452 31.3523C38.2191 31.3523 38.3114 31.3537 38.4222 31.3565C38.533 31.3594 38.6168 31.3636 38.6737 31.3693V32.392C38.6396 32.3835 38.5614 32.3707 38.4393 32.3537C38.32 32.3338 38.1935 32.3239 38.06 32.3239C37.7418 32.3239 37.4577 32.3906 37.2077 32.5241C36.9606 32.6548 36.7646 32.8366 36.6197 33.0696C36.4776 33.2997 36.4066 33.5625 36.4066 33.858V38H35.4009ZM43.1225 31.4545V32.3068H39.7305V31.4545H43.1225ZM40.7191 29.8864H41.7248V36.125C41.7248 36.4091 41.766 36.6222 41.8484 36.7642C41.9336 36.9034 42.0415 36.9972 42.1722 37.0455C42.3058 37.0909 42.4464 37.1136 42.5941 37.1136C42.7049 37.1136 42.7958 37.108 42.8668 37.0966C42.9379 37.0824 42.9947 37.071 43.0373 37.0625L43.2418 37.9659C43.1737 37.9915 43.0785 38.017 42.9563 38.0426C42.8342 38.071 42.6793 38.0852 42.4918 38.0852C42.2077 38.0852 41.9293 38.0241 41.6566 37.902C41.3867 37.7798 41.1623 37.5938 40.9833 37.3438C40.8072 37.0938 40.7191 36.7784 40.7191 36.3977V29.8864Z" fill="#8B96A5"/>
</svg>
