<svg width="24" height="24" viewBox="0 0 24 24" fill="none" xmlns="http://www.w3.org/2000/svg">
<path d="M22.5449 12.2066C22.5449 11.3162 22.4707 10.6732 22.3141 10.0054H12.2148V13.9956H18.1425C18.0305 14.6967 17.7777 15.3678 17.3994 15.9685C17.0211 16.5693 16.5251 17.0872 15.9413 17.4912L15.9248 17.6231L19.1153 20.0964L19.3379 20.1211C21.3742 18.2414 22.5449 15.4796 22.5449 12.2066Z" fill="#4285F4"/>
<path d="M12.2148 22.7257C15.1168 22.7257 17.5571 21.7694 19.3379 20.1206L15.9412 17.4824C15.0344 18.1254 13.8142 18.5624 12.2148 18.5624C10.8539 18.5552 9.5298 18.1196 8.43032 17.3176C7.33084 16.5156 6.51178 15.3877 6.08932 14.094L5.96566 14.1022L2.64322 16.6745L2.59375 16.7981C4.36627 20.3102 8.00199 22.7175 12.2148 22.7175" fill="#34A853"/>
<path d="M6.09059 14.094C5.61599 12.7138 5.61019 11.2155 6.07411 9.83171V9.69156L2.71044 7.07812L2.59502 7.12759C1.84159 8.62806 1.44922 10.2838 1.44922 11.9629C1.44922 13.6419 1.84159 15.2977 2.59502 16.7981L6.09059 14.094Z" fill="#FBBC05"/>
<path d="M12.2148 5.36331C14.2347 5.36331 15.595 6.2372 16.3699 6.9627L19.4203 4.003C17.5406 2.27171 15.1168 1.19995 12.2148 1.19995C8.00199 1.19995 4.36627 3.61552 2.59375 7.13583L6.07283 9.83171C6.50009 8.53936 7.32151 7.41334 8.42168 6.61188C9.52184 5.81041 10.8455 5.37377 12.2066 5.36331" fill="#EB4335"/>
</svg>
