<svg width="52" height="40" viewBox="0 0 52 40" fill="none" xmlns="http://www.w3.org/2000/svg">
<path d="M1.42791 28.2727H2.68928L5.65518 35.517H5.75746L8.72337 28.2727H9.98473V37H8.99609V30.3693H8.91087L6.18359 37H5.22905L2.50178 30.3693H2.41655V37H1.42791V28.2727ZM14.7116 37.1364C14.081 37.1364 13.5369 36.9972 13.0795 36.7188C12.625 36.4375 12.2741 36.0455 12.027 35.5426C11.7827 35.0369 11.6605 34.4489 11.6605 33.7784C11.6605 33.108 11.7827 32.517 12.027 32.0057C12.2741 31.4915 12.6179 31.0909 13.0582 30.804C13.5014 30.5142 14.0185 30.3693 14.6094 30.3693C14.9503 30.3693 15.2869 30.4261 15.6193 30.5398C15.9517 30.6534 16.2543 30.8381 16.527 31.0938C16.7997 31.3466 17.017 31.6818 17.179 32.0994C17.3409 32.517 17.4219 33.0312 17.4219 33.642V34.0682H12.3764V33.1989H16.3991C16.3991 32.8295 16.3253 32.5 16.1776 32.2102C16.0327 31.9205 15.8253 31.6918 15.5554 31.5241C15.2884 31.3565 14.973 31.2727 14.6094 31.2727C14.2088 31.2727 13.8622 31.3722 13.5696 31.571C13.2798 31.767 13.0568 32.0227 12.9006 32.3381C12.7443 32.6534 12.6662 32.9915 12.6662 33.3523V33.9318C12.6662 34.4261 12.7514 34.8452 12.9219 35.1889C13.0952 35.5298 13.3352 35.7898 13.642 35.9688C13.9489 36.1449 14.3054 36.233 14.7116 36.233C14.9759 36.233 15.2145 36.196 15.4276 36.1222C15.6435 36.0455 15.8295 35.9318 15.9858 35.7812C16.142 35.6278 16.2628 35.4375 16.348 35.2102L17.3196 35.483C17.2173 35.8125 17.0455 36.1023 16.804 36.3523C16.5625 36.5994 16.2642 36.7926 15.9091 36.9318C15.554 37.0682 15.1548 37.1364 14.7116 37.1364ZM23.5881 31.9205L22.6847 32.1761C22.6278 32.0256 22.544 31.8793 22.4332 31.7372C22.3253 31.5923 22.1776 31.473 21.9901 31.3793C21.8026 31.2855 21.5625 31.2386 21.2699 31.2386C20.8693 31.2386 20.5355 31.331 20.2685 31.5156C20.0043 31.6974 19.8722 31.929 19.8722 32.2102C19.8722 32.4602 19.9631 32.6577 20.1449 32.8026C20.3267 32.9474 20.6108 33.0682 20.9972 33.1648L21.9688 33.4034C22.554 33.5455 22.9901 33.7628 23.277 34.0554C23.5639 34.3452 23.7074 34.7187 23.7074 35.1761C23.7074 35.5511 23.5994 35.8864 23.3835 36.1818C23.1705 36.4773 22.8722 36.7102 22.4886 36.8807C22.1051 37.0511 21.6591 37.1364 21.1506 37.1364C20.483 37.1364 19.9304 36.9915 19.4929 36.7017C19.0554 36.4119 18.7784 35.9886 18.6619 35.4318L19.6165 35.1932C19.7074 35.5455 19.8793 35.8097 20.1321 35.9858C20.3878 36.1619 20.7216 36.25 21.1335 36.25C21.6023 36.25 21.9744 36.1506 22.25 35.9517C22.5284 35.75 22.6676 35.5085 22.6676 35.2273C22.6676 35 22.5881 34.8097 22.429 34.6562C22.2699 34.5 22.0256 34.3835 21.696 34.3068L20.6051 34.0511C20.0057 33.9091 19.5653 33.6889 19.2841 33.3906C19.0057 33.0895 18.8665 32.7131 18.8665 32.2614C18.8665 31.892 18.9702 31.5653 19.1776 31.2812C19.3878 30.9972 19.6733 30.7741 20.0341 30.6122C20.3977 30.4503 20.8097 30.3693 21.2699 30.3693C21.9176 30.3693 22.4261 30.5114 22.7955 30.7955C23.1676 31.0795 23.4318 31.4545 23.5881 31.9205ZM29.8576 31.9205L28.9542 32.1761C28.8974 32.0256 28.8136 31.8793 28.7028 31.7372C28.5948 31.5923 28.4471 31.473 28.2596 31.3793C28.0721 31.2855 27.832 31.2386 27.5394 31.2386C27.1388 31.2386 26.805 31.331 26.538 31.5156C26.2738 31.6974 26.1417 31.929 26.1417 32.2102C26.1417 32.4602 26.2326 32.6577 26.4144 32.8026C26.5962 32.9474 26.8803 33.0682 27.2667 33.1648L28.2383 33.4034C28.8235 33.5455 29.2596 33.7628 29.5465 34.0554C29.8335 34.3452 29.9769 34.7187 29.9769 35.1761C29.9769 35.5511 29.869 35.8864 29.6531 36.1818C29.44 36.4773 29.1417 36.7102 28.7582 36.8807C28.3746 37.0511 27.9286 37.1364 27.4201 37.1364C26.7525 37.1364 26.1999 36.9915 25.7624 36.7017C25.3249 36.4119 25.0479 35.9886 24.9315 35.4318L25.886 35.1932C25.9769 35.5455 26.1488 35.8097 26.4016 35.9858C26.6573 36.1619 26.9911 36.25 27.4031 36.25C27.8718 36.25 28.244 36.1506 28.5195 35.9517C28.7979 35.75 28.9371 35.5085 28.9371 35.2273C28.9371 35 28.8576 34.8097 28.6985 34.6562C28.5394 34.5 28.2951 34.3835 27.9656 34.3068L26.8746 34.0511C26.2752 33.9091 25.8349 33.6889 25.5536 33.3906C25.2752 33.0895 25.136 32.7131 25.136 32.2614C25.136 31.892 25.2397 31.5653 25.4471 31.2812C25.6573 30.9972 25.9428 30.7741 26.3036 30.6122C26.6673 30.4503 27.0792 30.3693 27.5394 30.3693C28.1871 30.3693 28.6957 30.5114 29.065 30.7955C29.4371 31.0795 29.7013 31.4545 29.8576 31.9205ZM33.4169 37.1534C33.0021 37.1534 32.6257 37.0753 32.2876 36.919C31.9496 36.7599 31.6811 36.5312 31.4822 36.233C31.2834 35.9318 31.1839 35.5682 31.1839 35.142C31.1839 34.767 31.2578 34.4631 31.4055 34.2301C31.5533 33.9943 31.7507 33.8097 31.9979 33.6761C32.245 33.5426 32.5178 33.4432 32.8161 33.3778C33.1172 33.3097 33.4197 33.2557 33.7237 33.2159C34.1214 33.1648 34.4439 33.1264 34.6911 33.1009C34.9411 33.0724 35.1229 33.0256 35.2365 32.9602C35.353 32.8949 35.4112 32.7812 35.4112 32.6193V32.5852C35.4112 32.1648 35.2962 31.8381 35.0661 31.6051C34.8388 31.3722 34.4936 31.2557 34.0305 31.2557C33.5504 31.2557 33.174 31.3608 32.9013 31.571C32.6286 31.7812 32.4368 32.0057 32.326 32.2443L31.3714 31.9034C31.5419 31.5057 31.7692 31.196 32.0533 30.9744C32.3402 30.75 32.6527 30.5937 32.9908 30.5057C33.3317 30.4148 33.6669 30.3693 33.9964 30.3693C34.2067 30.3693 34.4482 30.3949 34.7209 30.446C34.9964 30.4943 35.2621 30.5952 35.5178 30.7486C35.7763 30.902 35.9908 31.1335 36.1612 31.4432C36.3317 31.7528 36.4169 32.1676 36.4169 32.6875V37H35.4112V36.1136H35.3601C35.2919 36.2557 35.1783 36.4077 35.0192 36.5696C34.8601 36.7315 34.6484 36.8693 34.3842 36.983C34.12 37.0966 33.7976 37.1534 33.4169 37.1534ZM33.5703 36.25C33.968 36.25 34.3033 36.1719 34.576 36.0156C34.8516 35.8594 35.0589 35.6577 35.1982 35.4105C35.3402 35.1634 35.4112 34.9034 35.4112 34.6307V33.7102C35.3686 33.7614 35.2749 33.8082 35.13 33.8509C34.9879 33.8906 34.8232 33.9261 34.6357 33.9574C34.451 33.9858 34.2706 34.0114 34.0945 34.0341C33.9212 34.054 33.7805 34.071 33.6726 34.0852C33.4112 34.1193 33.1669 34.1747 32.9396 34.2514C32.7152 34.3253 32.5334 34.4375 32.3942 34.5881C32.2578 34.7358 32.1896 34.9375 32.1896 35.1932C32.1896 35.5426 32.3189 35.8068 32.5774 35.9858C32.8388 36.1619 33.1697 36.25 33.5703 36.25ZM40.8945 39.5909C40.4087 39.5909 39.9911 39.5284 39.6417 39.4034C39.2923 39.2812 39.0011 39.1193 38.7681 38.9176C38.538 38.7188 38.3548 38.5057 38.2184 38.2784L39.0195 37.7159C39.1104 37.8352 39.2255 37.9716 39.3647 38.125C39.5039 38.2812 39.6942 38.4162 39.9357 38.5298C40.18 38.6463 40.4996 38.7045 40.8945 38.7045C41.4229 38.7045 41.859 38.5767 42.2028 38.321C42.5465 38.0653 42.7184 37.6648 42.7184 37.1193V35.7898H42.6332C42.5593 35.9091 42.4542 36.0568 42.3178 36.233C42.1843 36.4062 41.9911 36.5611 41.7383 36.6974C41.4883 36.831 41.1502 36.8977 40.7241 36.8977C40.1957 36.8977 39.7212 36.7727 39.3008 36.5227C38.8832 36.2727 38.5522 35.9091 38.3079 35.4318C38.0664 34.9545 37.9457 34.375 37.9457 33.6932C37.9457 33.0227 38.0636 32.4389 38.2994 31.9418C38.5352 31.4418 38.8633 31.0554 39.2837 30.7827C39.7042 30.5071 40.19 30.3693 40.7411 30.3693C41.1673 30.3693 41.5053 30.4403 41.7553 30.5824C42.0082 30.7216 42.2013 30.8807 42.3349 31.0597C42.4712 31.2358 42.5763 31.3807 42.6502 31.4943H42.7525V30.4545H43.7241V37.1875C43.7241 37.75 43.5962 38.2074 43.3406 38.5597C43.0877 38.9148 42.7468 39.1747 42.3178 39.3395C41.8917 39.5071 41.4173 39.5909 40.8945 39.5909ZM40.8604 35.9943C41.2638 35.9943 41.6048 35.902 41.8832 35.7173C42.1616 35.5327 42.3732 35.267 42.5181 34.9205C42.663 34.5739 42.7354 34.1591 42.7354 33.6761C42.7354 33.2045 42.6644 32.7884 42.5224 32.4276C42.3803 32.0668 42.1701 31.7841 41.8917 31.5795C41.6133 31.375 41.2695 31.2727 40.8604 31.2727C40.4343 31.2727 40.0792 31.3807 39.7951 31.5966C39.5138 31.8125 39.3022 32.1023 39.1602 32.4659C39.021 32.8295 38.9513 33.233 38.9513 33.6761C38.9513 34.1307 39.0224 34.5327 39.1644 34.8821C39.3093 35.2287 39.5224 35.5014 39.8036 35.7003C40.0877 35.8963 40.44 35.9943 40.8604 35.9943ZM48.3093 37.1364C47.6786 37.1364 47.1346 36.9972 46.6772 36.7188C46.2227 36.4375 45.8718 36.0455 45.6246 35.5426C45.3803 35.0369 45.2582 34.4489 45.2582 33.7784C45.2582 33.108 45.3803 32.517 45.6246 32.0057C45.8718 31.4915 46.2156 31.0909 46.6559 30.804C47.0991 30.5142 47.6161 30.3693 48.207 30.3693C48.5479 30.3693 48.8846 30.4261 49.217 30.5398C49.5494 30.6534 49.8519 30.8381 50.1246 31.0938C50.3974 31.3466 50.6147 31.6818 50.7766 32.0994C50.9386 32.517 51.0195 33.0312 51.0195 33.642V34.0682H45.9741V33.1989H49.9968C49.9968 32.8295 49.9229 32.5 49.7752 32.2102C49.6303 31.9205 49.4229 31.6918 49.1531 31.5241C48.886 31.3565 48.5707 31.2727 48.207 31.2727C47.8065 31.2727 47.4599 31.3722 47.1673 31.571C46.8775 31.767 46.6545 32.0227 46.4982 32.3381C46.342 32.6534 46.2638 32.9915 46.2638 33.3523V33.9318C46.2638 34.4261 46.3491 34.8452 46.5195 35.1889C46.6928 35.5298 46.9329 35.7898 47.2397 35.9688C47.5465 36.1449 47.9031 36.233 48.3093 36.233C48.5735 36.233 48.8121 36.196 49.0252 36.1222C49.2411 36.0455 49.4272 35.9318 49.5835 35.7812C49.7397 35.6278 49.8604 35.4375 49.9457 35.2102L50.9173 35.483C50.815 35.8125 50.6431 36.1023 50.4016 36.3523C50.1602 36.5994 49.8619 36.7926 49.5067 36.9318C49.1516 37.0682 48.7525 37.1364 48.3093 37.1364Z" fill="#8B96A5"/>
<path fill-rule="evenodd" clip-rule="evenodd" d="M34 0H18C16.9 0 16.01 0.9 16.01 2L16 20L20 16H34C35.1 16 36 15.1 36 14V2C36 0.9 35.1 0 34 0ZM21 7H31C31.55 7 32 7.45 32 8C32 8.55 31.55 9 31 9H21C20.45 9 20 8.55 20 8C20 7.45 20.45 7 21 7ZM27 12H21C20.45 12 20 11.55 20 11C20 10.45 20.45 10 21 10H27C27.55 10 28 10.45 28 11C28 11.55 27.55 12 27 12ZM31 6H21C20.45 6 20 5.55 20 5C20 4.45 20.45 4 21 4H31C31.55 4 32 4.45 32 5C32 5.55 31.55 6 31 6Z" fill="#8B96A5"/>
</svg>
