<svg width="39" height="40" viewBox="0 0 39 40" fill="none" xmlns="http://www.w3.org/2000/svg">
<path fill-rule="evenodd" clip-rule="evenodd" d="M21.35 17.1302C20.59 17.8202 19.42 17.8202 18.66 17.1202L18.55 17.0202C13.3 12.2702 9.87003 9.16017 10 5.28017C10.06 3.58017 10.93 1.95017 12.34 0.990166C14.98 -0.809834 18.24 0.0301659 20 2.09017C21.76 0.0301659 25.02 -0.819834 27.66 0.990166C29.07 1.95017 29.94 3.58017 30 5.28017C30.14 9.16017 26.7 12.2702 21.45 17.0402L21.35 17.1302Z" fill="#8B96A5"/>
<path d="M8.63139 32.6364C8.63139 33.5568 8.4652 34.3523 8.13281 35.0227C7.80043 35.6932 7.34446 36.2102 6.76492 36.5739C6.18537 36.9375 5.52344 37.1193 4.77912 37.1193C4.0348 37.1193 3.37287 36.9375 2.79332 36.5739C2.21378 36.2102 1.75781 35.6932 1.42543 35.0227C1.09304 34.3523 0.926847 33.5568 0.926847 32.6364C0.926847 31.7159 1.09304 30.9205 1.42543 30.25C1.75781 29.5795 2.21378 29.0625 2.79332 28.6989C3.37287 28.3352 4.0348 28.1534 4.77912 28.1534C5.52344 28.1534 6.18537 28.3352 6.76492 28.6989C7.34446 29.0625 7.80043 29.5795 8.13281 30.25C8.4652 30.9205 8.63139 31.7159 8.63139 32.6364ZM7.60867 32.6364C7.60867 31.8807 7.48224 31.2429 7.2294 30.723C6.9794 30.2031 6.63991 29.8097 6.21094 29.5426C5.7848 29.2756 5.30753 29.142 4.77912 29.142C4.25071 29.142 3.77202 29.2756 3.34304 29.5426C2.9169 29.8097 2.57741 30.2031 2.32457 30.723C2.07457 31.2429 1.94957 31.8807 1.94957 32.6364C1.94957 33.392 2.07457 34.0298 2.32457 34.5497C2.57741 35.0696 2.9169 35.4631 3.34304 35.7301C3.77202 35.9972 4.25071 36.1307 4.77912 36.1307C5.30753 36.1307 5.7848 35.9972 6.21094 35.7301C6.63991 35.4631 6.9794 35.0696 7.2294 34.5497C7.48224 34.0298 7.60867 33.392 7.60867 32.6364ZM10.272 37V30.4545H11.2436V31.4432H11.3118C11.4311 31.1193 11.647 30.8565 11.9595 30.6548C12.272 30.4531 12.6243 30.3523 13.0163 30.3523C13.0902 30.3523 13.1825 30.3537 13.2933 30.3565C13.4041 30.3594 13.4879 30.3636 13.5447 30.3693V31.392C13.5107 31.3835 13.4325 31.3707 13.3104 31.3537C13.1911 31.3338 13.0646 31.3239 12.9311 31.3239C12.6129 31.3239 12.3288 31.3906 12.0788 31.5241C11.8317 31.6548 11.6357 31.8366 11.4908 32.0696C11.3487 32.2997 11.2777 32.5625 11.2777 32.858V37H10.272ZM17.0092 37.1364C16.4638 37.1364 15.9822 36.9986 15.5646 36.723C15.147 36.4446 14.8203 36.0526 14.5845 35.5469C14.3487 35.0384 14.2308 34.4375 14.2308 33.7443C14.2308 33.0568 14.3487 32.4602 14.5845 31.9545C14.8203 31.4489 15.1484 31.0582 15.5689 30.7827C15.9893 30.5071 16.4751 30.3693 17.0263 30.3693C17.4524 30.3693 17.7891 30.4403 18.0362 30.5824C18.2862 30.7216 18.4766 30.8807 18.6072 31.0597C18.7408 31.2358 18.8445 31.3807 18.9183 31.4943H19.0036V28.2727H20.0092V37H19.0376V35.9943H18.9183C18.8445 36.1136 18.7393 36.2642 18.603 36.446C18.4666 36.625 18.272 36.7855 18.0192 36.9276C17.7663 37.0668 17.4297 37.1364 17.0092 37.1364ZM17.1456 36.233C17.549 36.233 17.8899 36.1278 18.1683 35.9176C18.4467 35.7045 18.6584 35.4105 18.8033 35.0355C18.9482 34.6577 19.0206 34.2216 19.0206 33.7273C19.0206 33.2386 18.9496 32.8111 18.8075 32.4446C18.6655 32.0753 18.4553 31.7884 18.1768 31.5838C17.8984 31.3764 17.5547 31.2727 17.1456 31.2727C16.7195 31.2727 16.3643 31.3821 16.0803 31.6009C15.799 31.8168 15.5874 32.1108 15.4453 32.483C15.3061 32.8523 15.2365 33.267 15.2365 33.7273C15.2365 34.1932 15.3075 34.6165 15.4496 34.9972C15.5945 35.375 15.8075 35.6761 16.0888 35.9006C16.3729 36.1222 16.7251 36.233 17.1456 36.233ZM24.7351 37.1364C24.1044 37.1364 23.5604 36.9972 23.103 36.7188C22.6484 36.4375 22.2976 36.0455 22.0504 35.5426C21.8061 35.0369 21.6839 34.4489 21.6839 33.7784C21.6839 33.108 21.8061 32.517 22.0504 32.0057C22.2976 31.4915 22.6413 31.0909 23.0817 30.804C23.5249 30.5142 24.0419 30.3693 24.6328 30.3693C24.9737 30.3693 25.3104 30.4261 25.6428 30.5398C25.9751 30.6534 26.2777 30.8381 26.5504 31.0938C26.8232 31.3466 27.0405 31.6818 27.2024 32.0994C27.3643 32.517 27.4453 33.0312 27.4453 33.642V34.0682H22.3999V33.1989H26.4226C26.4226 32.8295 26.3487 32.5 26.201 32.2102C26.0561 31.9205 25.8487 31.6918 25.5788 31.5241C25.3118 31.3565 24.9964 31.2727 24.6328 31.2727C24.2322 31.2727 23.8857 31.3722 23.593 31.571C23.3033 31.767 23.0803 32.0227 22.924 32.3381C22.7678 32.6534 22.6896 32.9915 22.6896 33.3523V33.9318C22.6896 34.4261 22.7749 34.8452 22.9453 35.1889C23.1186 35.5298 23.3587 35.7898 23.6655 35.9688C23.9723 36.1449 24.3288 36.233 24.7351 36.233C24.9993 36.233 25.2379 36.196 25.451 36.1222C25.6669 36.0455 25.853 35.9318 26.0092 35.7812C26.1655 35.6278 26.2862 35.4375 26.3714 35.2102L27.343 35.483C27.2408 35.8125 27.0689 36.1023 26.8274 36.3523C26.5859 36.5994 26.2876 36.7926 25.9325 36.9318C25.5774 37.0682 25.1783 37.1364 24.7351 37.1364ZM28.9751 37V30.4545H29.9467V31.4432H30.0149C30.1342 31.1193 30.3501 30.8565 30.6626 30.6548C30.9751 30.4531 31.3274 30.3523 31.7195 30.3523C31.7933 30.3523 31.8857 30.3537 31.9964 30.3565C32.1072 30.3594 32.1911 30.3636 32.2479 30.3693V31.392C32.2138 31.3835 32.1357 31.3707 32.0135 31.3537C31.8942 31.3338 31.7678 31.3239 31.6342 31.3239C31.3161 31.3239 31.032 31.3906 30.782 31.5241C30.5348 31.6548 30.3388 31.8366 30.1939 32.0696C30.0518 32.2997 29.9808 32.5625 29.9808 32.858V37H28.9751ZM38.0763 31.9205L37.1729 32.1761C37.1161 32.0256 37.0323 31.8793 36.9215 31.7372C36.8136 31.5923 36.6658 31.473 36.4783 31.3793C36.2908 31.2855 36.0508 31.2386 35.7582 31.2386C35.3576 31.2386 35.0238 31.331 34.7567 31.5156C34.4925 31.6974 34.3604 31.929 34.3604 32.2102C34.3604 32.4602 34.4513 32.6577 34.6332 32.8026C34.815 32.9474 35.0991 33.0682 35.4854 33.1648L36.457 33.4034C37.0423 33.5455 37.4783 33.7628 37.7653 34.0554C38.0522 34.3452 38.1957 34.7187 38.1957 35.1761C38.1957 35.5511 38.0877 35.8864 37.8718 36.1818C37.6587 36.4773 37.3604 36.7102 36.9769 36.8807C36.5934 37.0511 36.1474 37.1364 35.6388 37.1364C34.9712 37.1364 34.4187 36.9915 33.9812 36.7017C33.5437 36.4119 33.2667 35.9886 33.1502 35.4318L34.1048 35.1932C34.1957 35.5455 34.3675 35.8097 34.6204 35.9858C34.8761 36.1619 35.2099 36.25 35.6218 36.25C36.0906 36.25 36.4627 36.1506 36.7383 35.9517C37.0167 35.75 37.1559 35.5085 37.1559 35.2273C37.1559 35 37.0763 34.8097 36.9173 34.6562C36.7582 34.5 36.5138 34.3835 36.1843 34.3068L35.0934 34.0511C34.494 33.9091 34.0536 33.6889 33.7724 33.3906C33.494 33.0895 33.3548 32.7131 33.3548 32.2614C33.3548 31.892 33.4585 31.5653 33.6658 31.2812C33.8761 30.9972 34.1616 30.7741 34.5224 30.6122C34.886 30.4503 35.2979 30.3693 35.7582 30.3693C36.4059 30.3693 36.9144 30.5114 37.2837 30.7955C37.6559 31.0795 37.9201 31.4545 38.0763 31.9205Z" fill="#8B96A5"/>
</svg>
