<svg  width="194" height="32" viewBox="0 0 194 32" fill="none" xmlns="http://www.w3.org/2000/svg">
<path d="M56.4585 18.1169C56.4585 20.1941 54.7746 21.878 52.6975 21.878H47.0575V12.0089H52.6975C54.7746 12.0089 56.4585 13.6928 56.4585 15.77V18.1169ZM61.1355 16.0002C60.9274 11.5197 57.2676 7.94035 52.7505 7.86434L42.3516 7.86133V32H47.0575V26.0225H52.7505C57.2706 25.9469 60.9327 22.3623 61.1359 17.8776C61.1419 17.7474 61.1645 17.3707 61.1645 16.9421C61.1645 16.5451 61.1419 16.1335 61.1355 16.0002Z" fill="black"/>
<path fill-rule="evenodd" clip-rule="evenodd" d="M69.1643 2.82335C69.1643 4.38273 67.9003 5.64708 66.3409 5.64708C64.7816 5.64708 63.5176 4.38273 63.5176 2.82335C63.5176 1.26398 64.7816 0 66.3409 0C67.9003 0 69.1643 1.26398 69.1643 2.82335ZM68.6939 26.0247H63.9879V7.86312H68.6939V26.0247Z" fill="black"/>
<path d="M82.5012 7.86357H72.459V26.0229H77.1649V12.0088H84.8565V26.0251H89.5624V14.9244C89.5624 11.0248 86.4008 7.86357 82.5012 7.86357Z" fill="black"/>
<path d="M97.1592 15.0966C97.4328 12.6066 99.0674 11.2836 101.621 11.2173C104.179 11.2836 105.738 12.5261 105.916 15.0966H97.1592ZM110.666 16.9408C110.666 16.3015 110.623 15.6851 110.534 15.0966C109.844 10.3052 106.401 7.29895 101.524 7.29895C96.0499 7.29895 92.3848 11.0886 92.3848 16.9408C92.3848 22.793 96.0499 26.5823 101.524 26.5823C105.411 26.5823 108.592 24.773 109.988 21.5719L105.843 20.0671C105.184 21.6968 103.78 22.4577 101.621 22.4577C98.9937 22.3915 97.4554 20.9198 97.1999 18.3406H110.592C110.643 17.8883 110.666 17.4202 110.666 16.9408Z" fill="black"/>
<path d="M122.661 22.0675C119.351 21.9933 117.803 20.3169 117.803 16.8471C117.803 13.4006 119.336 11.6851 122.661 11.6072C124.81 11.6576 126.205 12.3906 126.93 13.8292L131.285 12.2465C129.785 9.14281 126.685 7.29895 122.658 7.29895C116.883 7.29895 113.02 11.0886 113.02 16.9404C113.02 22.7926 116.883 26.5823 122.658 26.5823C126.685 26.5823 129.785 24.7384 131.285 21.6347L126.849 20.0208C126.096 21.354 124.72 22.0208 122.661 22.0675Z" fill="black"/>
<path d="M142.495 22.0681C139.187 21.9932 137.637 20.3176 137.637 16.847C137.637 13.399 139.169 11.6831 142.495 11.6067C145.821 11.6831 147.353 13.399 147.353 16.847C147.353 20.3176 145.803 21.9932 142.495 22.0681ZM142.493 7.29882C136.719 7.29882 132.855 11.0885 132.855 16.9407C132.855 22.7928 136.719 26.5825 142.493 26.5825C148.267 26.5825 152.131 22.7928 152.131 16.9407C152.131 11.0885 148.267 7.29882 142.493 7.29882Z" fill="black"/>
<path d="M164.997 7.85868H154.955V26.018H159.661V12.004H167.353V26.0203H172.059V14.9199C172.059 11.02 168.897 7.85868 164.997 7.85868Z" fill="black"/>
<path d="M179.655 15.0966C179.929 12.6066 181.564 11.2836 184.117 11.2173C186.675 11.2836 188.234 12.5261 188.411 15.0966H179.655ZM193.162 16.9408C193.162 16.3015 193.12 15.6851 193.03 15.0966C192.34 10.3052 188.897 7.29895 184.02 7.29895C178.546 7.29895 174.881 11.0886 174.881 16.9408C174.881 22.793 178.546 26.5823 184.02 26.5823C187.907 26.5823 191.088 24.773 192.484 21.5719L188.339 20.0671C187.68 21.6968 186.276 22.4577 184.117 22.4577C181.49 22.3915 179.951 20.9198 179.696 18.3406H193.088C193.139 17.8883 193.162 17.4202 193.162 16.9408Z" fill="black"/>
<path d="M5.26025 5.31679L0.83011 13.6198C0.277331 14.6591 0 15.7993 0 16.9413C0 18.0834 0.277331 19.224 0.83011 20.2629L5.26025 28.5659C6.07681 30.0997 7.67382 31.0574 9.41193 31.0574H14.1179V28.7051H14.116C13.2479 28.7051 12.4494 28.2272 12.0411 27.4603L7.61248 19.1558C7.2422 18.4635 7.05782 17.7033 7.05782 16.9413C7.05782 16.1793 7.2422 15.4192 7.61248 14.7268L12.0411 6.42235C12.4494 5.65546 13.2479 5.17718 14.116 5.17718H14.1179V2.82495H9.41193C7.67382 2.82495 6.07681 3.783 5.26025 5.31679Z" fill="black"/>
<path d="M32.1089 13.6198L27.6788 5.31679C26.8618 3.783 25.2652 2.82495 23.5271 2.82495H18.8211V5.17718H18.823C19.6911 5.17718 20.4896 5.65545 20.8979 6.42235L25.3265 14.7268C25.6964 15.4192 25.8808 16.1793 25.8808 16.9413C25.8808 17.7033 25.6964 18.4635 25.3265 19.1558L20.8979 27.4603C20.4896 28.2272 19.6911 28.7051 18.823 28.7051H18.8211V31.0574H23.5271C25.2652 31.0574 26.8618 30.0997 27.6788 28.5659L32.1089 20.2629C32.6617 19.224 32.939 18.0834 32.939 16.9413C32.939 15.7993 32.6617 14.6591 32.1089 13.6198Z" fill="black"/>
</svg>
