<svg width="37" height="41" viewBox="0 0 37 41" fill="none" xmlns="http://www.w3.org/2000/svg">
<path d="M1.53338 38V29.2727H4.48224C5.1669 29.2727 5.72656 29.3963 6.16122 29.6435C6.59872 29.8878 6.92259 30.2188 7.13281 30.6364C7.34304 31.054 7.44815 31.5199 7.44815 32.0341C7.44815 32.5483 7.34304 33.0156 7.13281 33.4361C6.92543 33.8565 6.6044 34.1918 6.16974 34.4418C5.73509 34.6889 5.17827 34.8125 4.49929 34.8125H2.38565V33.875H4.4652C4.93395 33.875 5.31037 33.794 5.59446 33.6321C5.87855 33.4702 6.08452 33.2514 6.21236 32.9759C6.34304 32.6974 6.40838 32.3835 6.40838 32.0341C6.40838 31.6847 6.34304 31.3722 6.21236 31.0966C6.08452 30.821 5.87713 30.6051 5.5902 30.4489C5.30327 30.2898 4.92259 30.2102 4.44815 30.2102H2.5902V38H1.53338ZM9.0142 38V31.4545H9.9858V32.4432H10.054C10.1733 32.1193 10.3892 31.8565 10.7017 31.6548C11.0142 31.4531 11.3665 31.3523 11.7585 31.3523C11.8324 31.3523 11.9247 31.3537 12.0355 31.3565C12.1463 31.3594 12.2301 31.3636 12.2869 31.3693V32.392C12.2528 32.3835 12.1747 32.3707 12.0526 32.3537C11.9332 32.3338 11.8068 32.3239 11.6733 32.3239C11.3551 32.3239 11.071 32.3906 10.821 32.5241C10.5739 32.6548 10.3778 32.8366 10.233 33.0696C10.0909 33.2997 10.0199 33.5625 10.0199 33.858V38H9.0142ZM15.9389 38.1364C15.348 38.1364 14.8295 37.9957 14.3835 37.7145C13.9403 37.4332 13.5938 37.0398 13.3438 36.5341C13.0966 36.0284 12.973 35.4375 12.973 34.7614C12.973 34.0795 13.0966 33.4844 13.3438 32.9759C13.5938 32.4673 13.9403 32.0724 14.3835 31.7912C14.8295 31.5099 15.348 31.3693 15.9389 31.3693C16.5298 31.3693 17.0469 31.5099 17.4901 31.7912C17.9361 32.0724 18.2827 32.4673 18.5298 32.9759C18.7798 33.4844 18.9048 34.0795 18.9048 34.7614C18.9048 35.4375 18.7798 36.0284 18.5298 36.5341C18.2827 37.0398 17.9361 37.4332 17.4901 37.7145C17.0469 37.9957 16.5298 38.1364 15.9389 38.1364ZM15.9389 37.233C16.3878 37.233 16.7571 37.1179 17.0469 36.8878C17.3366 36.6577 17.5511 36.3551 17.6903 35.9801C17.8295 35.6051 17.8991 35.1989 17.8991 34.7614C17.8991 34.3239 17.8295 33.9162 17.6903 33.5384C17.5511 33.1605 17.3366 32.8551 17.0469 32.6222C16.7571 32.3892 16.3878 32.2727 15.9389 32.2727C15.4901 32.2727 15.1207 32.3892 14.831 32.6222C14.5412 32.8551 14.3267 33.1605 14.1875 33.5384C14.0483 33.9162 13.9787 34.3239 13.9787 34.7614C13.9787 35.1989 14.0483 35.6051 14.1875 35.9801C14.3267 36.3551 14.5412 36.6577 14.831 36.8878C15.1207 37.1179 15.4901 37.233 15.9389 37.233ZM23.3548 31.4545V32.3068H19.8263V31.4545H23.3548ZM20.8832 38V30.5511C20.8832 30.1761 20.9712 29.8636 21.1474 29.6136C21.3235 29.3636 21.5522 29.1761 21.8335 29.0511C22.1147 28.9261 22.4116 28.8636 22.7241 28.8636C22.9712 28.8636 23.1729 28.8835 23.3292 28.9233C23.4854 28.9631 23.6019 29 23.6786 29.0341L23.3888 29.9034C23.3377 29.8864 23.2667 29.8651 23.1758 29.8395C23.0877 29.8139 22.9712 29.8011 22.8263 29.8011C22.494 29.8011 22.2539 29.8849 22.1062 30.0526C21.9613 30.2202 21.8888 30.4659 21.8888 30.7898V38H20.8832ZM24.7642 38V31.4545H25.7699V38H24.7642ZM25.2756 30.3636C25.0795 30.3636 24.9105 30.2969 24.7685 30.1634C24.6293 30.0298 24.5597 29.8693 24.5597 29.6818C24.5597 29.4943 24.6293 29.3338 24.7685 29.2003C24.9105 29.0668 25.0795 29 25.2756 29C25.4716 29 25.6392 29.0668 25.7784 29.2003C25.9205 29.3338 25.9915 29.4943 25.9915 29.6818C25.9915 29.8693 25.9205 30.0298 25.7784 30.1634C25.6392 30.2969 25.4716 30.3636 25.2756 30.3636ZM28.6175 29.2727V38H27.6119V29.2727H28.6175ZM33.2038 38.1364C32.5732 38.1364 32.0291 37.9972 31.5717 37.7188C31.1172 37.4375 30.7663 37.0455 30.5192 36.5426C30.2749 36.0369 30.1527 35.4489 30.1527 34.7784C30.1527 34.108 30.2749 33.517 30.5192 33.0057C30.7663 32.4915 31.1101 32.0909 31.5504 31.804C31.9936 31.5142 32.5107 31.3693 33.1016 31.3693C33.4425 31.3693 33.7791 31.4261 34.1115 31.5398C34.4439 31.6534 34.7464 31.8381 35.0192 32.0938C35.2919 32.3466 35.5092 32.6818 35.6712 33.0994C35.8331 33.517 35.9141 34.0312 35.9141 34.642V35.0682H30.8686V34.1989H34.8913C34.8913 33.8295 34.8175 33.5 34.6697 33.2102C34.5249 32.9205 34.3175 32.6918 34.0476 32.5241C33.7805 32.3565 33.4652 32.2727 33.1016 32.2727C32.701 32.2727 32.3544 32.3722 32.0618 32.571C31.772 32.767 31.549 33.0227 31.3928 33.3381C31.2365 33.6534 31.1584 33.9915 31.1584 34.3523V34.9318C31.1584 35.4261 31.2436 35.8452 31.4141 36.1889C31.5874 36.5298 31.8274 36.7898 32.1342 36.9688C32.4411 37.1449 32.7976 37.233 33.2038 37.233C33.468 37.233 33.7067 37.196 33.9197 37.1222C34.1357 37.0455 34.3217 36.9318 34.478 36.7812C34.6342 36.6278 34.755 36.4375 34.8402 36.2102L35.8118 36.483C35.7095 36.8125 35.5376 37.1023 35.2962 37.3523C35.0547 37.5994 34.7564 37.7926 34.4013 37.9318C34.0462 38.0682 33.647 38.1364 33.2038 38.1364Z" fill="#8B96A5"/>
<path fill-rule="evenodd" clip-rule="evenodd" d="M18 10C20.7625 10 23 7.7625 23 5C23 2.2375 20.7625 0 18 0C15.2375 0 13 2.2375 13 5C13 7.7625 15.2375 10 18 10ZM18 11.5C14.6625 11.5 8 13.175 8 16.5V17.75C8 18.4375 8.5625 19 9.25 19H26.75C27.4375 19 28 18.4375 28 17.75V16.5C28 13.175 21.3375 11.5 18 11.5Z" fill="#8B96A5"/>
</svg>
